<svg xmlns="http://www.w3.org/2000/svg" viewBox="0 0 800 450">
  <defs>
    <linearGradient id="bg" x1="0%" y1="0%" x2="100%" y2="100%">
      <stop offset="0%" stop-color="#fff5eb"/>
      <stop offset="100%" stop-color="#ffe8d0"/>
    </linearGradient>
  </defs>
  <rect width="800" height="450" fill="url(#bg)"/>
  <g transform="translate(364, 100) scale(3)">
    <path fill="#FF6A00" d="M3.996 4.517h5.291L8.01 6.324 4.153 7.506a1.668 1.668 0 0 0-1.165 1.601v5.786a1.668 1.668 0 0 0 1.165 1.6l3.857 1.183 1.277 1.807H3.996A3.996 3.996 0 0 1 0 15.487V8.513a3.996 3.996 0 0 1 3.996-3.996m16.008 0h-5.291l1.277 1.807 3.857 1.182c.715.227 1.17.889 1.165 1.601v5.786a1.668 1.668 0 0 1-1.165 1.6l-3.857 1.183-1.277 1.807h5.291A3.996 3.996 0 0 0 24 15.487V8.513a3.996 3.996 0 0 0-3.996-3.996m-4.007 8.345H8.002v-1.804h7.995Z"/>
  </g>
  <text x="400" y="220" text-anchor="middle" fill="#FF6A00" font-family="system-ui, -apple-system, sans-serif" font-size="52" font-weight="700" letter-spacing="0.05em">Alibaba</text>
  <text x="400" y="280" text-anchor="middle" fill="#ff8c33" font-family="system-ui, -apple-system, sans-serif" font-size="30" font-weight="600">Qwen</text>
  <line x1="330" y1="310" x2="470" y2="310" stroke="#ff8c33" stroke-width="1.5" opacity="0.4"/>
</svg>
