<svg xmlns="http://www.w3.org/2000/svg" viewBox="0 0 800 450">
  <defs>
    <linearGradient id="bg" x1="0%" y1="0%" x2="100%" y2="100%">
      <stop offset="0%" stop-color="#1a1a3e"/>
      <stop offset="50%" stop-color="#2d2b6b"/>
      <stop offset="100%" stop-color="#4a3a8a"/>
    </linearGradient>
  </defs>
  <rect width="800" height="450" fill="url(#bg)"/>
  <g transform="translate(362, 95) scale(3)">
    <path fill="#8ab4f8" d="m5.99,1.62a8.54,8.54 0 0 0 -2.54,6.83c0.35,4.4 4.51,7.99 8.28,7.99c3.5,0 4.88,-3.06 4.54,-5.14a4.32,4.32 0 0 0 -0.95,-2.07c0.63,0.34 1.24,0.77 1.81,1.3c1.52,1.41 2.44,3.23 2.58,5.1c0.33,4.13 -2.73,8.37 -7.85,8.37c-1.69,0 -3.48,-0.43 -4.98,-1.14c-4.06,-1.92 -6.88,-6.06 -6.88,-10.86c0,-4.43 2.41,-8.3 5.99,-10.38zm6.15,-1.62c1.69,0 3.48,0.43 4.98,1.14a12,12 0 0 1 6.88,10.86c0,4.43 -2.41,8.3 -5.99,10.38a8.54,8.54 0 0 0 2.54,-6.83c-0.35,-4.4 -4.51,-7.99 -8.28,-7.99c-3.5,0 -4.88,3.06 -4.54,5.14a4.3,4.3 0 0 0 0.96,2.07a8.72,8.72 0 0 1 -1.81,-1.3c-1.52,-1.41 -2.44,-3.23 -2.59,-5.1c-0.33,-4.13 2.73,-8.37 7.85,-8.37z"/>
  </g>
  <text x="400" y="235" text-anchor="middle" fill="#e8eaed" font-family="system-ui, -apple-system, sans-serif" font-size="56" font-weight="600" letter-spacing="0.03em">Gemma 4</text>
  <text x="400" y="285" text-anchor="middle" fill="#8ab4f8" font-family="system-ui, -apple-system, sans-serif" font-size="24" font-weight="400">Google DeepMind</text>
</svg>
