<svg xmlns="http://www.w3.org/2000/svg" viewBox="0 0 100 100" width="100" height="100">
  <circle cx="50" cy="50" r="48" fill="#24292f"/>
  <path d="M50 12C29 12 12 29 12 50c0 16.8 10.9 31 26 36 1.9.4 2.6-.8 2.6-1.8v-6.3c-10.6 2.3-12.8-5.1-12.8-5.1-1.7-4.4-4.2-5.6-4.2-5.6-3.4-2.3.3-2.3.3-2.3 3.8.3 5.8 3.9 5.8 3.9 3.4 5.8 8.8 4.1 11 3.1.3-2.4 1.3-4.1 2.4-5.1-8.4-1-17.3-4.2-17.3-18.8 0-4.2 1.5-7.6 3.9-10.2-.4-1-1.7-4.8.4-10.1 0 0 3.2-1 10.4 3.9 3-0.8 6.2-1.3 9.4-1.3s6.4.4 9.4 1.3c7.2-4.9 10.4-3.9 10.4-3.9 2.1 5.3.8 9.1.4 10.1 2.4 2.6 3.9 6 3.9 10.2 0 14.6-8.9 17.8-17.4 18.7 1.4 1.2 2.6 3.5 2.6 7.1v10.5c0 1 .7 2.2 2.6 1.8 15.1-5 26-19.2 26-36C88 29 71 12 50 12z" fill="white"/>
</svg>
