<svg xmlns="http://www.w3.org/2000/svg" viewBox="0 0 800 450">
  <defs>
    <linearGradient id="bg" x1="0%" y1="0%" x2="100%" y2="100%">
      <stop offset="0%" stop-color="#1a1a2e"/>
      <stop offset="100%" stop-color="#2d2d44"/>
    </linearGradient>
  </defs>
  <rect width="800" height="450" fill="url(#bg)" rx="12"/>
  <!-- Server rack -->
  <g transform="translate(400,180)">
    <!-- Rack frame -->
    <rect x="-80" y="-90" width="160" height="180" rx="6" fill="#252540" stroke="#4a4a6a" stroke-width="2"/>
    <!-- Server unit 1 -->
    <rect x="-65" y="-78" width="130" height="40" rx="4" fill="#1e1e36" stroke="#4a4a6a" stroke-width="1"/>
    <circle cx="-45" cy="-58" r="4" fill="#22c55e"/>
    <circle cx="-30" cy="-58" r="4" fill="#22c55e"/>
    <rect x="20" y="-66" width="40" height="4" rx="2" fill="#4a4a6a"/>
    <rect x="20" y="-56" width="40" height="4" rx="2" fill="#4a4a6a"/>
    <rect x="20" y="-46" width="40" height="4" rx="2" fill="#4a4a6a"/>
    <!-- Server unit 2 -->
    <rect x="-65" y="-28" width="130" height="40" rx="4" fill="#1e1e36" stroke="#4a4a6a" stroke-width="1"/>
    <circle cx="-45" cy="-8" r="4" fill="#3b82f6"/>
    <circle cx="-30" cy="-8" r="4" fill="#3b82f6"/>
    <rect x="20" y="-16" width="40" height="4" rx="2" fill="#4a4a6a"/>
    <rect x="20" y="-6" width="40" height="4" rx="2" fill="#4a4a6a"/>
    <rect x="20" y="4" width="40" height="4" rx="2" fill="#4a4a6a"/>
    <!-- Server unit 3 -->
    <rect x="-65" y="22" width="130" height="40" rx="4" fill="#1e1e36" stroke="#4a4a6a" stroke-width="1"/>
    <circle cx="-45" cy="42" r="4" fill="#f59e0b"/>
    <circle cx="-30" cy="42" r="4" fill="#22c55e"/>
    <rect x="20" y="34" width="40" height="4" rx="2" fill="#4a4a6a"/>
    <rect x="20" y="44" width="40" height="4" rx="2" fill="#4a4a6a"/>
    <rect x="20" y="54" width="40" height="4" rx="2" fill="#4a4a6a"/>
  </g>
  <text x="400" y="340" text-anchor="middle" fill="#e2e8f0" font-size="28" font-family="system-ui, sans-serif" font-weight="600">Server &amp; Infrastructure</text>
  <text x="400" y="370" text-anchor="middle" fill="#94a3b8" font-size="16" font-family="system-ui, sans-serif">サーバー / インフラ</text>
</svg>
