<svg xmlns="http://www.w3.org/2000/svg" viewBox="0 0 1200 675">
  <defs>
    <linearGradient id="bg" x1="0%" y1="0%" x2="100%" y2="100%">
      <stop offset="0%" stop-color="#0c1222"/>
      <stop offset="100%" stop-color="#1a1a2e"/>
    </linearGradient>
    <linearGradient id="bar" x1="0%" y1="0%" x2="100%" y2="0%">
      <stop offset="0%" stop-color="#3b82f6"/>
      <stop offset="100%" stop-color="#22d3ee"/>
    </linearGradient>
  </defs>
  <rect width="1200" height="675" fill="url(#bg)"/>
  <!-- Editor window frame -->
  <rect x="120" y="80" width="960" height="520" rx="12" fill="#1e293b" stroke="#334155" stroke-width="1"/>
  <!-- Title bar -->
  <rect x="120" y="80" width="960" height="36" rx="12" fill="#334155"/>
  <rect x="120" y="104" width="960" height="12" fill="#334155"/>
  <circle cx="148" cy="98" r="6" fill="#ef4444" opacity="0.8"/>
  <circle cx="170" cy="98" r="6" fill="#f59e0b" opacity="0.8"/>
  <circle cx="192" cy="98" r="6" fill="#22c55e" opacity="0.8"/>
  <!-- Sidebar -->
  <rect x="120" y="116" width="200" height="484" fill="#161e2e"/>
  <rect x="140" y="136" width="120" height="8" rx="4" fill="#334155" opacity="0.6"/>
  <rect x="140" y="156" width="90" height="8" rx="4" fill="#3b82f6" opacity="0.4"/>
  <rect x="140" y="176" width="140" height="8" rx="4" fill="#334155" opacity="0.4"/>
  <rect x="140" y="196" width="100" height="8" rx="4" fill="#334155" opacity="0.4"/>
  <rect x="152" y="216" width="80" height="8" rx="4" fill="#334155" opacity="0.3"/>
  <rect x="152" y="236" width="110" height="8" rx="4" fill="#22d3ee" opacity="0.3"/>
  <rect x="140" y="260" width="130" height="8" rx="4" fill="#334155" opacity="0.4"/>
  <rect x="140" y="280" width="95" height="8" rx="4" fill="#334155" opacity="0.4"/>
  <!-- Code lines -->
  <g opacity="0.7">
    <rect x="340" y="136" width="60" height="8" rx="3" fill="#c084fc"/>
    <rect x="410" y="136" width="100" height="8" rx="3" fill="#22d3ee"/>
    <rect x="340" y="160" width="30" height="8" rx="3" fill="#94a3b8"/>
    <rect x="380" y="160" width="80" height="8" rx="3" fill="#fbbf24"/>
    <rect x="470" y="160" width="60" height="8" rx="3" fill="#f1f5f9"/>
    <rect x="340" y="184" width="50" height="8" rx="3" fill="#c084fc"/>
    <rect x="400" y="184" width="120" height="8" rx="3" fill="#86efac"/>
    <rect x="360" y="208" width="70" height="8" rx="3" fill="#22d3ee"/>
    <rect x="440" y="208" width="90" height="8" rx="3" fill="#f1f5f9" opacity="0.6"/>
    <rect x="360" y="232" width="40" height="8" rx="3" fill="#94a3b8"/>
    <rect x="410" y="232" width="140" height="8" rx="3" fill="#86efac"/>
    <rect x="360" y="256" width="100" height="8" rx="3" fill="#fbbf24"/>
    <rect x="340" y="280" width="30" height="8" rx="3" fill="#94a3b8"/>
    <rect x="340" y="308" width="60" height="8" rx="3" fill="#c084fc"/>
    <rect x="410" y="308" width="80" height="8" rx="3" fill="#22d3ee"/>
    <rect x="360" y="332" width="50" height="8" rx="3" fill="#f1f5f9" opacity="0.5"/>
    <rect x="420" y="332" width="110" height="8" rx="3" fill="#86efac"/>
  </g>
  <!-- AI suggestion glow -->
  <rect x="330" y="360" width="500" height="80" rx="8" fill="#3b82f6" opacity="0.06" stroke="#3b82f6" stroke-width="1" opacity="0.2"/>
  <rect x="350" y="376" width="200" height="8" rx="3" fill="#3b82f6" opacity="0.5"/>
  <rect x="350" y="396" width="300" height="8" rx="3" fill="#3b82f6" opacity="0.35"/>
  <rect x="350" y="416" width="160" height="8" rx="3" fill="#3b82f6" opacity="0.25"/>
  <!-- Terminal area -->
  <rect x="320" y="460" width="760" height="140" fill="#0f172a" rx="0"/>
  <rect x="340" y="478" width="12" height="8" rx="2" fill="#22c55e" opacity="0.7"/>
  <rect x="360" y="478" width="140" height="8" rx="3" fill="#94a3b8" opacity="0.5"/>
  <rect x="340" y="498" width="280" height="8" rx="3" fill="#22d3ee" opacity="0.3"/>
  <rect x="340" y="518" width="12" height="8" rx="2" fill="#22c55e" opacity="0.7"/>
  <rect x="360" y="518" width="60" height="10" rx="3" fill="#94a3b8" opacity="0.4"/>
  <!-- Blinking cursor -->
  <rect x="430" y="516" width="2" height="12" fill="#22d3ee" opacity="0.8"/>
</svg>
